<?xml version="1.0" encoding="UTF-8"?>
<svg width="198px" height="20px" viewBox="0 0 198 20" version="1.1" xmlns="http://www.w3.org/2000/svg" xmlns:xlink="http://www.w3.org/1999/xlink">
    <!-- Generator: Sketch 46.2 (44496) - http://www.bohemiancoding.com/sketch -->
    <title>WarmteWinner®</title>
    <desc>Created with Sketch.</desc>
    <defs></defs>
    <g id="––-Prototype-sept." stroke="none" stroke-width="1" fill="none" fill-rule="evenodd">
        <g id="UI---WarmteWinner-desktop" transform="translate(-50.000000, -125.000000)" fill="#D21242">
            <g id="Group" transform="translate(0.000000, 100.000000)">
                <path d="M63.325,32.05 C64.225,35.525 65.3,40 66.05,44 L70.25,44 C72,38.8 74.025,31.775 75.3,26.575 L71.9,26.575 C70.925,30.875 69.7,35.45 68.275,39.9 C67.55,36.275 65.9,30.325 64.85,26.575 L61.8,26.575 C61.05,30.425 59.35,36.425 58.3,39.9 C57.225,35.35 55.825,30.375 54.55,26.575 L50.95,26.575 C52.6,31.225 54.575,38.475 55.95,44 L60.125,44 C61.3,40.175 62.575,35.7 63.325,32.05 Z M88.225,35.85 L88.225,43.35 C86.625,43.975 84.25,44.35 82.475,44.35 C78.45,44.35 77.1,43.425 77.1,40.1 C77.1,36.5 79.125,35.925 82.1,35.925 C83.175,35.925 84.175,36.05 85.25,36.275 C85.25,34.05 84.725,33.5 82.075,33.5 C80.675,33.5 79.275,33.75 78.225,34.125 L77.65,31.575 C78.975,31.225 80.9,30.9 82.725,30.9 C86.5,30.9 88.225,32.05 88.225,35.85 Z M85.25,41.55 L85.25,38.375 C84.55,38.225 83.65,38.15 82.725,38.15 C80.975,38.15 80.35,38.35 80.35,39.975 C80.35,41.7 80.825,41.975 82.7,41.975 C83.6,41.975 84.525,41.8 85.25,41.55 Z M92.1,44 L95.2,44 L95.2,35.175 C95.2,34.25 96.575,33.75 98.125,33.75 C98.675,33.75 99.3,33.825 99.75,33.925 L99.75,30.975 C99.3,30.925 98.875,30.9 98.45,30.9 C96.625,30.9 95.65,31.525 95.2,32.225 L95.2,31.275 L92.1,31.275 L92.1,44 Z M105.175,34 C105.8,33.825 106.625,33.7 107.3,33.7 C109.35,33.7 109.85,34.4 109.85,37.225 L109.85,44 L112.95,44 L112.95,36.9 C112.95,35.75 112.825,34.8 112.6,34.05 C113.425,33.8 114.45,33.7 115.075,33.7 C117.125,33.7 117.625,34.4 117.625,37.225 L117.625,44 L120.725,44 L120.725,36.9 C120.725,32.325 119.3,30.9 115.725,30.9 C114.275,30.9 112.575,31.25 111.2,31.75 C110.45,31.175 109.375,30.9 107.95,30.9 C105.925,30.9 103.625,31.4 102.075,32 L102.075,44 L105.175,44 L105.175,34 Z M132.575,33.975 L132.575,31.275 L128.35,31.275 L128.35,27.85 L125.25,29.125 L125.25,31.275 L123.125,31.275 L123.125,33.975 L125.25,33.975 L125.25,39.725 C125.25,43.5 126.65,44.35 129.5,44.35 C130.725,44.35 132.1,44.1 133,43.775 L132.45,41.325 C131.825,41.525 131.1,41.675 130.275,41.675 C128.775,41.675 128.35,41.025 128.35,39.45 L128.35,33.975 L132.575,33.975 Z M145.15,41.2 L145.65,43.65 C144.375,44.075 142.5,44.35 141.2,44.35 C137.525,44.35 135.025,42.8 135.025,37.575 C135.025,32.475 137.25,30.9 140.95,30.9 C144.975,30.9 146.725,32.275 146.5,38.45 L138.275,38.45 C138.3,41.175 139.35,41.725 141.575,41.725 C142.475,41.725 144.15,41.5 145.15,41.2 Z M141.125,33.35 C139.175,33.35 138.5,33.975 138.3,36.075 L143.65,36.075 C143.55,33.825 142.9,33.35 141.125,33.35 Z M160.375,32.05 C161.275,35.525 162.35,40 163.1,44 L167.3,44 C169.05,38.8 171.075,31.775 172.35,26.575 L168.95,26.575 C167.975,30.875 166.75,35.45 165.325,39.9 C164.6,36.275 162.95,30.325 161.9,26.575 L158.85,26.575 C158.1,30.425 156.4,36.425 155.35,39.9 C154.275,35.35 152.875,30.375 151.6,26.575 L148,26.575 C149.65,31.225 151.625,38.475 153,44 L157.175,44 C158.35,40.175 159.625,35.7 160.375,32.05 Z M177.75,31.275 L174.65,31.275 L174.65,44 L177.75,44 L177.75,31.275 Z M176.225,25.975 C174.85,25.975 174.425,26.175 174.425,27.5 C174.425,28.975 174.85,29.225 176.225,29.225 C177.575,29.225 178,28.975 178,27.5 C178,26.175 177.575,25.975 176.225,25.975 Z M184.8,34 C185.55,33.8 186.275,33.7 187.075,33.7 C189.275,33.7 189.8,34.4 189.8,37.225 L189.8,44 L192.9,44 L192.9,36.9 C192.9,32.325 191.3,30.9 187.725,30.9 C185.7,30.9 183.25,31.4 181.7,32 L181.7,44 L184.8,44 L184.8,34 Z M199.875,34 C200.625,33.8 201.35,33.7 202.15,33.7 C204.35,33.7 204.875,34.4 204.875,37.225 L204.875,44 L207.975,44 L207.975,36.9 C207.975,32.325 206.375,30.9 202.8,30.9 C200.775,30.9 198.325,31.4 196.775,32 L196.775,44 L199.875,44 L199.875,34 Z M221.525,41.2 L222.025,43.65 C220.75,44.075 218.875,44.35 217.575,44.35 C213.9,44.35 211.4,42.8 211.4,37.575 C211.4,32.475 213.625,30.9 217.325,30.9 C221.35,30.9 223.1,32.275 222.875,38.45 L214.65,38.45 C214.675,41.175 215.725,41.725 217.95,41.725 C218.85,41.725 220.525,41.5 221.525,41.2 Z M217.5,33.35 C215.55,33.35 214.875,33.975 214.675,36.075 L220.025,36.075 C219.925,33.825 219.275,33.35 217.5,33.35 Z M226.15,44 L229.25,44 L229.25,35.175 C229.25,34.25 230.625,33.75 232.175,33.75 C232.725,33.75 233.35,33.825 233.8,33.925 L233.8,30.975 C233.35,30.925 232.925,30.9 232.5,30.9 C230.675,30.9 229.7,31.525 229.25,32.225 L229.25,31.275 L226.15,31.275 L226.15,44 Z M244.675,31.2 C244.675,32.725 244.05,33.2 242.975,33.2 C243.55,33.475 244.15,34.075 244.5,35.65 L242.375,35.65 C242.2,34.75 241.625,33.75 241.25,33.75 L240.775,33.75 L240.775,35.65 L238.825,35.65 L238.825,29 L242.9,29 C244.15,29 244.675,30 244.675,31.2 Z M242.65,31.3 C242.65,30.9 242.525,30.6 242.125,30.6 L240.775,30.6 L240.775,32.05 L242.125,32.05 C242.525,32.05 242.65,31.75 242.65,31.3 Z M247.5,32.35 C247.5,37.125 245.6,38.575 241.525,38.575 C237.45,38.575 235.575,37.125 235.575,32.35 C235.575,27.5 237.5,26.175 241.525,26.175 C245.575,26.175 247.5,27.5 247.5,32.35 Z M245.45,32.35 C245.45,28.6 244.45,28 241.525,28 C238.675,28 237.65,28.6 237.65,32.35 C237.65,35.875 238.675,36.7 241.525,36.7 C244.45,36.7 245.45,35.875 245.45,32.35 Z" id="WarmteWinner®"></path>
            </g>
        </g>
    </g>
</svg>