<?xml version="1.0" encoding="UTF-8"?>
<svg width="76px" height="18px" viewBox="0 0 76 18" version="1.1" xmlns="http://www.w3.org/2000/svg" xmlns:xlink="http://www.w3.org/1999/xlink">
    <!-- Generator: Sketch 46.2 (44496) - http://www.bohemiancoding.com/sketch -->
    <title>Group 17</title>
    <desc>Created with Sketch.</desc>
    <defs></defs>
    <g id="––-Prototype-sept." stroke="none" stroke-width="1" fill="none" fill-rule="evenodd">
        <g id="UI---Toon-Desktop" transform="translate(-50.000000, -127.000000)" fill="#FF693B">
            <g id="Group-2" transform="translate(-51.000000, 100.000000)">
                <g id="Group-Copy-45">
                    <g id="Page-1" transform="translate(101.000000, 27.000000)">
                        <g id="Group-17">
                            <path d="M6.00437098,4.1137395 L1.76529535,4.1137395 C0.780544983,4.1137395 7.04399407e-05,3.33303015 7.04399407e-05,2.33630499 C7.04399407e-05,1.35178942 0.780544983,0.571080079 1.76529535,0.571080079 L14.0023566,0.571080079 C14.9990818,0.571080079 15.7793216,1.35178942 15.7793216,2.33630499 C15.7793216,3.33303015 14.9990818,4.1137395 14.0023566,4.1137395 L9.76304622,4.1137395 L9.76304622,15.9302743 C9.76304622,16.9871083 8.93443772,17.8159516 7.8898134,17.8159516 C6.83297949,17.8159516 6.00437098,16.9871083 6.00437098,15.9302743 L6.00437098,4.1137395 Z M65.7480067,11.3068314 L65.7480067,2.27643104 C65.7480067,1.2557563 66.5766152,0.4271478 67.6094995,0.4271478 C68.6301742,0.4271478 69.4587827,1.2557563 69.4587827,2.27643104 L69.4587827,15.8821404 C69.4587827,16.9392091 68.6301742,17.7678176 67.5855499,17.7678176 C66.58859,17.7678176 66.0123913,17.3233416 65.5080413,16.6628497 L57.9782464,6.86371478 L57.9782464,15.9546935 C57.9782464,16.9871083 57.1498727,17.8159516 56.129198,17.8159516 C55.0963136,17.8159516 54.2677051,16.9871083 54.2677051,15.9546935 L54.2677051,2.31235541 C54.2677051,1.2557563 55.0963136,0.4271478 56.140938,0.4271478 C57.1376631,0.4271478 57.7140966,0.883363816 58.2186814,1.53188087 L65.7480067,11.3068314 Z M24.2098085,18.0080178 C19.1660739,18.0080178 15.2031228,14.0450667 15.2031228,9.12131488 C15.2031228,4.18582304 19.1660739,0.234846762 24.2098085,0.234846762 C29.2413334,0.234846762 33.2042845,4.18582304 33.2042845,9.12131488 C33.2042845,14.0450667 29.2413334,18.0080178 24.2098085,18.0080178 L24.2098085,18.0080178 Z M24.2098085,3.66949827 C21.2555573,3.66949827 18.9859825,6.09498023 18.9859825,9.12131488 C18.9859825,12.1354399 21.2555573,14.5733663 24.2098085,14.5733663 C27.15185,14.5733663 29.4214249,12.1354399 29.4214249,9.12131488 C29.4214249,6.09498023 27.15185,3.66949827 24.2098085,3.66949827 L24.2098085,3.66949827 Z M43.5918277,18.0080178 C38.5480932,18.0080178 34.5851421,14.0450667 34.5851421,9.12131488 C34.5851421,4.18582304 38.5480932,0.234846762 43.5918277,0.234846762 C48.6235875,0.234846762 52.5865386,4.18582304 52.5865386,9.12131488 C52.5865386,14.0450667 48.6235875,18.0080178 43.5918277,18.0080178 L43.5918277,18.0080178 Z M43.5918277,3.66949827 C40.6378114,3.66949827 38.3680017,6.09498023 38.3680017,9.12131488 C38.3680017,12.1354399 40.6378114,14.5733663 43.5918277,14.5733663 C46.5336345,14.5733663 48.8034441,12.1354399 48.8034441,9.12131488 C48.8034441,6.09498023 46.5336345,3.66949827 43.5918277,3.66949827 L43.5918277,3.66949827 Z" id="Fill-1"></path>
                            <path d="M71.2041906,2.48458107 L71.2041906,2.47166708 C71.2041906,1.2575173 72.1884713,0.234964162 73.4284491,0.234964162 C74.681106,0.234964162 75.652238,1.24460331 75.652238,2.45898789 L75.652238,2.47166708 C75.652238,3.68581686 74.668192,4.70837 73.4284491,4.70837 C72.1760269,4.70837 71.2041906,3.69873085 71.2041906,2.48458107 L71.2041906,2.48458107 Z M75.2044748,2.47166708 L75.2044748,2.46016189 C75.2044748,1.47963791 74.4432538,0.672161394 73.4284491,0.672161394 C72.4246799,0.672161394 71.6519538,1.4911431 71.6519538,2.47166708 L71.6519538,2.48317227 C71.6519538,3.46369624 72.4134095,4.27117276 73.4284491,4.27117276 C74.4317486,4.27117276 75.2044748,3.45195625 75.2044748,2.47166708 L75.2044748,2.47166708 Z M72.5615682,1.6169958 C72.5615682,1.46038433 72.6817857,1.33993203 72.8264224,1.33993203 L73.5850606,1.33993203 C74.1025593,1.33993203 74.4639162,1.58083663 74.4639162,2.06241102 C74.4639162,2.38737395 74.2948604,2.61606896 74.030241,2.72454647 L74.3554387,3.12182773 C74.4009899,3.18311048 74.427757,3.24228003 74.427757,3.31459837 C74.427757,3.45900025 74.3192795,3.56724296 74.1629029,3.56724296 C74.0661653,3.56724296 74.0062914,3.519109 73.9461826,3.45900025 L73.4401891,2.83278917 L73.0912766,2.83278917 L73.0912766,3.30238878 C73.0912766,3.44702546 72.9708243,3.56724296 72.8264224,3.56724296 C72.6817857,3.56724296 72.5615682,3.44702546 72.5615682,3.30238878 L72.5615682,1.6169958 Z M73.5486666,2.39934874 C73.7895712,2.39934874 73.9217635,2.27913124 73.9217635,2.09857019 C73.9217635,1.90579956 73.7773616,1.79755685 73.5486666,1.79755685 L73.0912766,1.79755685 L73.0912766,2.39934874 L73.5486666,2.39934874 Z" id="Fill-4"></path>
                        </g>
                    </g>
                </g>
            </g>
        </g>
    </g>
</svg>